<svg width="210" height="157" viewBox="0 0 210 157" fill="none" xmlns="http://www.w3.org/2000/svg">
<path fill-rule="evenodd" clip-rule="evenodd" d="M24 79.4846C25.6458 75.4183 27.8253 71.59 30.4807 68.1007C31.5961 66.7808 32.8649 65.5991 34.2601 64.5809C35.016 64.1576 35.8608 63.7009 36.6945 64.2578C37.5282 64.8148 37.3837 65.8507 37.1392 66.6527C36.2165 69.6045 35.2272 72.4226 34.2935 75.3744C34.1823 75.7197 33.771 76.9561 33.6376 77.4239C34.4157 76.2432 35.6385 74.0823 36.45 72.9684C38.1637 70.3645 40.3018 68.0677 42.775 66.1737C44.5301 64.7539 46.7477 64.0357 49 64.1576C48.3219 65.4497 47.6772 66.6416 47.0658 67.8445C44.5619 72.6782 42.5222 77.7394 40.9742 82.9599C40.7344 83.8225 40.6221 84.7157 40.6407 85.6109C40.6088 85.8473 40.6477 86.088 40.7526 86.3022C40.8574 86.5164 41.0235 86.6945 41.2296 86.8139C41.4357 86.9333 41.6727 86.9886 41.9102 86.9727C42.1478 86.9568 42.3753 86.8706 42.5638 86.7248C43.2731 86.3036 43.9267 85.7947 44.5091 85.2099C45.9542 83.8176 47.3882 82.3918 48.7999 80.9772C48.0375 82.7491 47.099 84.4396 45.9987 86.0231C44.0253 88.8035 41.4387 91.0906 38.4398 92.7063C36.8057 93.4304 35.8942 92.7954 35.8608 91.0244C35.9965 86.8099 37.0956 82.6829 39.0734 78.9611C40.3517 76.3991 40.7408 75.7642 42.1525 73.2691C42.2414 73.1021 43.9089 70.529 44.0089 70.3619C42.5742 71.2198 41.2426 72.2401 40.0405 73.4028C36.5622 76.6822 33.727 80.5848 31.6812 84.9092C30.3361 87.5045 27.835 91.5925 27.1792 92.6395C27.3459 91.9712 28.2019 89.0974 28.7243 87.46C30.3772 82.4527 31.7393 77.3537 32.8039 72.1887C32.9818 71.4981 33.2263 69.9609 32.6261 69.9609C31.9178 70.0429 31.2588 70.3652 30.7586 70.8743C28.5314 73.0418 26.5619 75.4601 24.8893 78.0811C24.5891 78.5489 24.3001 79.0168 24 79.4846Z" fill="black"/>
<path d="M54.6533 75C57.5934 75 59 76.563 59 82.4023C59 87.7533 57.4031 90 54.3995 90C51.396 90 50 88.9906 50 82.5217C50 77.225 51.7133 75 54.6533 75ZM54.463 88.0246C55.6686 88.0246 56.5781 86.9392 56.5781 82.4674C56.5781 77.9957 55.933 77.0948 54.611 77.0948C53.2891 77.0948 52.4959 78.0933 52.4959 82.5868C52.4642 87.2865 53.1727 87.9812 54.463 87.9812V88.0246Z" fill="black"/>
<path d="M61 76.3284C62.1557 75.4942 63.5346 75.0311 64.956 75C66.4505 75 67 75.4428 67 76.2399C66.9952 76.7215 66.9021 77.1982 66.7253 77.6458C66.2961 77.4137 65.8167 77.292 65.3297 77.2915C64.6344 77.3028 63.9638 77.5528 63.4286 78V89.5351C63.4286 90 63.4286 90 61.044 90L61 76.3284Z" fill="black"/>
<path d="M74.6252 70.0605C74.6252 69 75.058 69 77 69V89.1497C75.6843 89.7359 74.2455 90.0262 72.7941 89.9981C70.2417 89.9981 68 89.2982 68 83.1897C68 77.6326 69.9975 75.3737 72.5277 75.3737C73.2743 75.3341 74.0132 75.5358 74.6252 75.9464V70.0605ZM74.6252 77.7068C74.234 77.4347 73.7533 77.3067 73.2713 77.3462C71.9729 77.3462 70.6745 78.3007 70.6745 82.9033C70.6745 87.1454 71.5068 87.9089 72.894 87.9089C73.5047 87.9379 74.1107 87.794 74.6362 87.4953L74.6252 77.7068Z" fill="black"/>
<path d="M81.8866 89.537C81.8866 90 81.8866 90 80 90V76.474C80 75.3717 80.3859 75.3717 81.8866 75.3717V89.537ZM81.0891 69C81.8008 69 82.0238 69.463 81.998 70.6866C81.9723 71.9102 81.6636 72.5717 80.9519 72.5717C80.2401 72.5717 80.0257 72.0976 80.0257 70.7307C80.0429 69.6945 80.3687 69 81.0891 69Z" fill="black"/>
<path d="M91.7829 77.5997C91.1328 77.2656 90.4073 77.0865 89.6686 77.0776C88.24 77.0776 86.6629 77.6867 86.6629 82.8209C86.6629 86.8782 87.52 87.9224 89.36 87.9224C90.2082 87.911 91.0374 87.6818 91.76 87.2589C91.8992 87.671 91.9799 88.099 92 88.5315C92 89.3038 90.6057 90 88.5714 90C85.6914 90 84 88.9123 84 82.8209C84 75.9028 86.9371 75 89.4514 75C90.8457 75 91.9657 75.5547 91.9657 76.3053C91.9922 76.7439 91.9302 77.1833 91.7829 77.5997Z" fill="black"/>
<path d="M98.5094 70H100.384L102.385 80.931C102.837 83.4453 103.027 85.4696 103.227 87.3234H103.395C103.482 85.1774 103.724 83.0408 104.122 80.931L105.817 71.6407C105.902 71.1613 105.965 70.9589 106.407 70.9589H108.05L109.998 80.931C110.472 83.4666 110.64 85.4483 110.84 87.2488H111.009C111.146 85.4696 111.367 83.0724 111.704 80.931L113.494 70.6819C113.578 70.2237 113.662 70 114.073 70H116L112.346 89.8484C111.718 89.9389 111.085 89.9852 110.451 89.9869C109.777 89.9869 109.398 89.369 109.219 88.3781L107.797 82.0603C107.492 80.5368 107.155 77.543 106.934 75.6679C106.712 77.5963 106.344 80.5901 106.123 82.0603L104.585 89.8803C103.887 89.9715 103.183 90.0106 102.479 89.9975C101.89 89.9975 101.532 89.2944 101.332 88.2503C100.384 83.5732 98.0356 70.6819 98.0356 70.6819C97.9513 70.2237 97.9829 70 98.5094 70Z" fill="black"/>
<path d="M124.998 79.6447C125.017 80.9029 124.908 82.1599 124.675 83.3974C122.634 83.7113 120.571 83.8641 118.506 83.8542C118.617 86.9108 119.441 87.7157 121.245 87.7157C122.418 87.7 123.568 87.3931 124.586 86.8238C124.734 87.3405 124.805 87.8753 124.797 88.4119C124.797 89.3038 122.938 90 120.722 90C117.982 90 116 88.9123 116 83.256C116 76.0442 118.628 75 121.223 75C123.818 75 124.998 76.5337 124.998 79.6447ZM118.528 81.9507C119.865 82.0116 121.205 81.9056 122.515 81.6352C122.624 81.0652 122.673 80.4856 122.659 79.9057C122.659 77.8281 122.247 77.0558 120.978 77.0558C119.708 77.0558 118.706 78.0566 118.528 81.9507Z" fill="black"/>
<path d="M127 70.0626C127 69 127.405 69 129.354 69V76.3211C130.232 75.6422 131.331 75.2916 132.453 75.3329C134.774 75.3329 136 76.778 136 80.8901C136 89.0294 132.803 89.9857 130.394 89.9857C129.197 90.0711 128.005 89.7724 127 89.1357V70.0626ZM129.354 87.5737C129.752 87.8396 130.229 87.9704 130.712 87.9456C131.73 87.9456 133.35 87.0955 133.35 81.3789C133.35 78.3718 132.715 77.3837 131.38 77.3837C130.625 77.3812 129.899 77.6631 129.354 78.17V87.5737Z" fill="black"/>
<path d="M148.085 72.1671V89.5472C148.085 90 148.085 90 145.81 90V72.1671H142V70.4852C142 70.1402 142.138 70 142.476 70H152V71.7143C152 72.0593 151.862 72.1671 151.524 72.1671H148.085Z" fill="black"/>
<path d="M159.998 79.6555C160.016 80.9101 159.908 82.1634 159.675 83.3974C157.635 83.7113 155.571 83.8641 153.506 83.8542C153.628 86.9108 154.452 87.7157 156.256 87.7157C157.429 87.7 158.579 87.3931 159.597 86.8238C159.736 87.342 159.804 87.8762 159.798 88.4119C159.798 89.3038 157.938 90 155.722 90C152.982 90 151 88.9123 151 83.256C151 76.0442 153.628 75 156.234 75C158.84 75 159.998 76.5446 159.998 79.6555ZM153.539 81.9616C154.873 82.0225 156.209 81.9165 157.515 81.6461C157.628 81.0765 157.681 80.4968 157.671 79.9166C157.671 77.839 157.259 77.0667 155.989 77.0667C154.72 77.0667 153.773 78.0674 153.539 81.9616Z" fill="black"/>
<path d="M161.401 75.7916C162.892 75.2134 164.503 74.9461 166.119 75.009C168.809 75.009 170 75.9329 170 78.5307V80.0524C170 83.3676 170 86.824 169.811 89.0197C168.483 89.6925 166.986 90.03 165.471 89.9979C163.182 89.9979 161 89.5631 161 85.6501C161 81.7372 163.064 80.922 165.152 80.922C165.935 80.8996 166.715 81.0292 167.44 81.3024V79.0524C167.44 77.7046 166.744 77.3568 165.494 77.3568C164.093 77.3444 162.699 77.5577 161.377 77.9872C161.14 77.5796 161.019 77.1236 161.024 76.6611C161.001 76.4986 161.024 76.3336 161.091 76.1815C161.157 76.0294 161.263 75.8952 161.401 75.7916ZM165.99 82.6502C164.739 82.6502 163.63 83.0524 163.63 85.5632C163.63 87.661 164.444 88.0414 165.659 88.0414C166.26 88.0563 166.847 87.8796 167.322 87.5414C167.417 86.5958 167.417 84.4654 167.417 82.9111C166.962 82.7481 166.478 82.6634 165.99 82.6611V82.6502Z" fill="black"/>
<path d="M177.81 78.5708C177.81 77.5177 177.545 77.1075 176.372 77.1075C175.673 77.1064 174.985 77.2777 174.368 77.6064V89.5344C174.368 90 174.28 90 172 90V75.9879C173.39 75.3511 174.899 75.0186 176.427 75.0123C176.908 74.9715 177.391 75.0323 177.847 75.1908C178.303 75.3493 178.72 75.602 179.072 75.9324C180.183 75.3394 181.421 75.0238 182.68 75.0123C185.613 75.0123 186 76.52 186 79.1583V89.5344C186 90 185.911 90 183.632 90V79.1251C183.632 77.7061 183.366 77.1186 182.193 77.1186C181.495 77.1104 180.81 77.307 180.223 77.684V89.5344C180.223 90 180.223 90 177.855 90L177.81 78.5708Z" fill="black"/>
</svg>
