<svg width="1099" height="284" viewBox="0 0 1099 284" fill="none" xmlns="http://www.w3.org/2000/svg">
<path d="M64.0013 216.7L43.3013 270.6C43.1013 270.8 42.9013 271.2 42.6013 271.8C42.3013 272.4 42.1013 273.3 42.1013 274.4C42.1013 277.4 42.8013 279.7 44.3013 281.2C45.8013 282.7 48.5013 283.5 52.4013 283.5H82.9013C85.2013 283.5 87.1013 282.8 88.7013 281.3C90.3013 279.8 91.4013 277.9 92.0013 275.6L91.6013 276.3C92.8013 273 94.6013 268.2 97.0013 262C99.4013 255.8 102.201 248.7 105.401 240.5C108.601 232.4 112.201 223.4 116.001 213.7C119.901 204 123.901 193.8 128.101 183.3C132.301 172.7 136.601 162 141.001 151C145.401 140 149.701 129.3 154.001 118.7C158.301 108.1 162.401 97.9 166.301 88.1C170.301 78.3 173.901 69.2 177.301 61C177.801 59.7 178.201 58.3 178.401 57C178.601 55.6 178.401 54.4 177.801 53.3C177.201 52.2 176.201 51.3 174.801 50.7C173.401 50 171.501 49.7 169.001 49.7H135.101C132.501 49.7 130.401 50.2 128.901 51.2C127.401 52.2 126.201 54.1 125.201 56.9L88.6013 163.2L51.2013 56.9C50.5013 54.9 49.4013 53.2 48.0013 51.8C46.6013 50.4 44.8013 49.8 42.6013 49.8H10.0013C5.30134 49.8 2.30134 51.1 1.00134 53.6C-0.398665 56.1 -0.298659 59.1 1.10134 62.6L64.0013 216.7ZM371.101 58.8C371.101 57.2 370.801 55.8 370.301 54.6C369.801 53.4 368.901 52.3 367.701 51.3C366.701 50.3 365.601 49.7 364.301 49.5C363.001 49.3 361.801 49.1 360.901 49.1H341.201C339.401 49.1 338.101 49.2 337.101 49.4C336.101 49.6 335.301 50.1 334.701 50.7C334.001 51.4 333.401 52.4 332.901 53.7C332.301 55.1 331.601 56.8 330.701 59L326.901 71C324.501 67.6 321.801 64.4 318.601 61.4C315.401 58.5 311.901 55.9 308.001 53.8C304.101 51.7 299.801 50 295.101 48.8C290.401 47.6 285.301 47 279.901 47C267.901 47 256.701 49.2 246.201 53.7C235.701 58.1 226.601 64.3 218.901 72C211.201 79.8 205.001 88.9 200.601 99.5C196.101 110 193.901 121.4 193.901 133.6C193.901 141.7 194.901 149.5 196.901 156.9C198.901 164.3 201.801 171.3 205.501 177.7C209.201 184.1 213.701 190 218.901 195.2C224.101 200.4 229.901 204.9 236.301 208.7C242.701 212.4 249.501 215.3 256.901 217.3C264.201 219.3 271.901 220.3 279.901 220.3C284.401 220.3 288.701 219.7 292.901 218.6C297.101 217.5 301.001 216 304.601 214.2C308.301 212.4 311.601 210.4 314.601 208.1C317.601 205.8 320.301 203.5 322.701 201.1L324.401 207C324.901 208.5 325.401 209.9 325.901 211.2C326.401 212.5 327.001 213.6 327.701 214.4C328.401 215.3 329.301 216 330.501 216.4C331.601 216.9 333.101 217.1 335.001 217.1H361.001C362.001 217.1 363.101 217 364.401 216.7C365.701 216.4 366.901 215.8 367.801 214.9C369.001 214.1 369.901 213 370.401 211.7C370.901 210.3 371.201 208.9 371.201 207.4V58.8H371.101ZM243.801 117.6C245.601 112.5 248.201 108 251.501 104.1C254.801 100.2 258.901 97.2 263.601 94.9C268.301 92.7 273.501 91.5 279.201 91.5C285.101 91.5 290.601 92.6 295.601 94.9C300.701 97.1 305.101 100.2 308.801 104.1C312.501 108 315.501 112.5 317.601 117.6C319.701 122.7 320.801 128.1 320.801 133.7C320.801 139.5 319.701 144.9 317.601 150C315.501 155.1 312.601 159.4 308.801 163.1C305.101 166.8 300.701 169.7 295.601 171.9C290.501 174.1 285.101 175.1 279.201 175.1C273.501 175.1 268.301 174 263.601 171.9C258.901 169.7 254.901 166.8 251.501 163.1C248.201 159.4 245.601 155 243.801 150C242.001 144.9 241.101 139.5 241.101 133.7C241.001 128 241.901 122.7 243.801 117.6ZM455.501 216.7L434.801 270.6C434.601 270.8 434.401 271.2 434.101 271.8C433.801 272.4 433.601 273.3 433.601 274.4C433.601 277.4 434.301 279.7 435.801 281.2C437.301 282.7 440.001 283.5 443.901 283.5H474.401C476.701 283.5 478.601 282.8 480.201 281.3C481.801 279.8 482.901 277.9 483.501 275.6L483.101 276.3C484.301 273 486.101 268.2 488.501 262C490.901 255.8 493.701 248.7 496.901 240.5C500.101 232.4 503.701 223.4 507.501 213.7C511.401 204 515.401 193.8 519.601 183.3C523.801 172.7 528.101 162 532.501 151C536.901 140 541.201 129.3 545.501 118.7C549.801 108.1 553.901 97.9 557.801 88.1C561.801 78.3 565.401 69.2 568.801 61C569.301 59.7 569.701 58.3 569.901 57C570.101 55.6 569.901 54.4 569.301 53.3C568.701 52.2 567.701 51.3 566.301 50.7C564.901 50 563.001 49.7 560.501 49.7H526.601C524.001 49.7 521.901 50.2 520.401 51.2C518.901 52.2 517.701 54.1 516.701 56.9L480.101 163.2L442.701 56.9C442.001 54.9 440.901 53.2 439.501 51.8C438.101 50.4 436.301 49.8 434.101 49.8H401.501C396.801 49.8 393.801 51.1 392.501 53.6C391.101 56.1 391.201 59.1 392.601 62.6L455.501 216.7ZM590.101 207.2C590.101 210.5 590.801 213.1 592.201 214.8C593.601 216.5 596.001 217.4 599.501 217.4H630.101C633.101 217.4 635.501 216.5 637.401 214.8C639.301 213.1 640.201 210.6 640.201 207.2V10C640.201 8.5 639.901 7.09999 639.301 5.89999C638.701 4.69999 638.001 3.59998 637.201 2.69998C636.401 1.79998 635.501 1.09998 634.501 0.699982C633.501 0.199982 632.601 0 631.701 0H599.401C596.001 0 593.501 0.999994 592.101 2.89999C590.701 4.79999 590.001 7.2 590.001 10V207.2H590.101ZM669.801 157C671.901 164.4 674.801 171.4 678.501 177.8C682.201 184.2 686.701 190.1 692.001 195.3C697.201 200.5 703.101 205 709.501 208.8C715.901 212.5 722.901 215.4 730.301 217.4C737.701 219.4 745.501 220.4 753.601 220.4C761.601 220.4 769.301 219.4 776.601 217.4C783.901 215.4 790.801 212.5 797.301 208.8C803.701 205.1 809.601 200.6 814.801 195.3C820.001 190.1 824.501 184.2 828.301 177.8C832.001 171.4 834.901 164.4 837.001 157C839.101 149.6 840.101 141.8 840.101 133.7C840.101 121.5 837.801 110.1 833.301 99.6C828.801 89.1 822.601 79.9 814.801 72.1C807.001 64.3 797.901 58.2 787.301 53.8C776.801 49.4 765.501 47.1 753.601 47.1C745.501 47.1 737.701 48.1 730.301 50.1C722.901 52.1 715.901 55 709.501 58.7C703.101 62.4 697.201 66.9 692.001 72.1C686.801 77.3 682.301 83.1 678.501 89.5C674.801 95.9 671.901 102.8 669.801 110.3C667.701 117.8 666.701 125.6 666.701 133.7C666.701 141.8 667.801 149.5 669.801 157ZM717.601 117.6C719.401 112.5 722.001 108 725.301 104.1C728.601 100.2 732.601 97.2 737.301 94.9C742.001 92.7 747.301 91.5 753.201 91.5C758.901 91.5 764.101 92.6 768.701 94.9C773.301 97.1 777.201 100.2 780.401 104.1C783.601 108 786.101 112.5 787.801 117.6C789.501 122.7 790.401 128.1 790.401 133.7C790.401 139.5 789.501 144.9 787.801 150C786.101 155.1 783.601 159.4 780.401 163.1C777.201 166.8 773.301 169.7 768.701 171.9C764.101 174.1 758.901 175.1 753.201 175.1C747.301 175.1 742.001 174 737.301 171.9C732.601 169.7 728.601 166.8 725.301 163.1C722.001 159.4 719.401 155 717.601 150C715.801 144.9 714.901 139.5 714.901 133.7C714.901 128 715.801 122.7 717.601 117.6ZM917.001 9.69998C917.001 8.39998 916.701 7 916.101 5.5C915.501 4 914.701 2.90001 913.501 2.10001C911.001 0.700006 908.801 0 906.801 0H877.001C873.201 0 870.501 0.899988 868.801 2.79999C867.101 4.59999 866.301 7.10001 866.301 10.1V59.1V59.8V99.1V100V207.4C866.301 210.5 867.101 212.9 868.801 214.8C870.501 216.6 873.201 217.6 877.001 217.6H906.801C908.101 217.6 909.301 217.5 910.301 217.2C911.301 216.9 912.401 216.5 913.501 215.7C914.601 214.9 915.501 213.8 916.101 212.3C916.701 210.8 917.001 209.3 917.001 207.8V120.7C917.301 116.7 918.201 113.1 919.801 109.9C921.401 106.6 923.501 103.9 925.901 101.5C928.301 99.2 931.001 97.4 934.101 96.1C937.101 94.8 940.201 94.2 943.401 94.2C947.101 94.2 950.601 94.9 953.901 96.2C957.201 97.6 960.101 99.5 962.501 101.9C965.001 104.3 966.901 107.2 968.401 110.4C969.901 113.7 970.601 117.2 970.601 121V208.3C970.601 212 971.301 214.5 972.701 215.8C974.101 217.1 976.701 217.7 980.501 217.7H1011C1014.2 217.7 1016.5 216.8 1017.9 215.1C1019.3 213.4 1020.1 210.9 1020.1 207.5V121C1020.1 110.9 1018.9 101.4 1016.6 92.4C1014.3 83.5 1010.7 75.7 1005.9 69C1001.1 62.3 995.001 57.1 987.701 53.2C980.401 49.3 971.701 47.4 961.601 47.4C956.401 47.4 951.501 48 946.801 49.2C942.101 50.4 937.901 51.9 934.101 53.8C930.301 55.7 926.901 57.8 923.901 60.2C921.001 62.6 918.601 65 917.001 67.5V9.69998V9.69998Z" fill="black"/>
<path d="M1039 182C1039 198.569 1052.43 212 1069 212C1085.57 212 1099 198.569 1099 182C1099 165.431 1085.57 152 1069 152C1052.43 152 1039 165.431 1039 182Z" fill="#2BCFB5"/>
</svg>
